PathFileType	4	(X/Y/Z)	18_1_20_p0_0-188_filt_butterworth.trc
DataRate	CameraRate	NumFrames	NumMarkers	Units	OrigDataRate	OrigDataStartFrame	OrigNumFrames
53.0	53.0	5	27	m	53.0	23	188
Frame#	Time	RHip			RKnee			RAnkle			RBigToe			RSmallToe			RHeel			LHip			LKnee			LAnkle			LBigToe			LSmallToe			LHeel			Neck			Head			Nose			RShoulder			RElbow			RWrist			RThumb			RIndex			RPinky			LShoulder			LElbow			LWrist			LThumb			LIndex			LPinky			
		X1	Y1	Z1	X2	Y2	Z2	X3	Y3	Z3	X4	Y4	Z4	X5	Y5	Z5	X6	Y6	Z6	X7	Y7	Z7	X8	Y8	Z8	X9	Y9	Z9	X10	Y10	Z10	X11	Y11	Z11	X12	Y12	Z12	X13	Y13	Z13	X14	Y14	Z14	X15	Y15	Z15	X16	Y16	Z16	X17	Y17	Z17	X18	Y18	Z18	X19	Y19	Z19	X20	Y20	Z20	X21	Y21	Z21	X22	Y22	Z22	X23	Y23	Z23	X24	Y24	Z24	X25	Y25	Z25	X26	Y26	Z26	X27	Y27	Z27	
23	0.4339622641509434	0.2581842492349904	0.44012419721962137	1.209943659416119	0.24299712166357007	0.5001169349573511	1.6496143394021887	0.228558332248939	0.5448090673743486	2.017657954699866	0.21222821756512444	0.3374990418552138	2.0085286262955013	0.276792974884168	0.39081296264485366	2.026555395420214	0.22278479823943972	0.6743356763702243	2.0984696748607594	0.0465999048629041	0.43981573653525885	1.209845007670804	0.04010715515330394	0.4961988794719445	1.6544271355522548	0.03771534592193157	0.5837175288690537	2.021239032503658	0.05839811774247607	0.3782381354052633	2.017165388469106	-0.0018830456367933926	0.4383661507703538	2.031404882826906	0.047038100875231754	0.6329998558202143	2.0636971235261505	0.1752536564832198	0.3633106963191228	0.6881542057238128	0.18029455991667603	0.31118074870826595	0.4611192373653751	0.1801835891158258	0.25648811916787817	0.5801858749404857	0.3070635256924665	0.32586390966620643	0.772042398127164	0.28257201741538274	0.22324035166038636	0.9655751646905545	0.20867193423404046	-0.0046302985675394865	1.0676254041729378	0.14162466390943507	-0.10991408547847209	1.1077055970859682	0.151220060436795	-0.11991509727559962	1.1120000375487757	0.18347103713871252	-0.05616386218656151	1.1418797366383042	0.02777512833173041	0.3691492546341807	0.7687512212505296	0.034376428879390894	0.16333406494400365	0.9699908039467451	0.09924803922863457	-0.037949853062363356	1.049745005650517	0.1559936764864012	-0.09980126512507292	1.1094463315081284	0.16285438521803824	-0.11199271396245464	1.1104655975458075	0.13569139380925943	-0.043921659950256695	1.1296133774342092
24	0.4528301886792453	0.2581469374769922	0.4401571979884184	1.209487650560769	0.24404724563879293	0.5044966573180658	1.6524155882513945	0.22870840351288585	0.5470396691692664	2.0167523402115752	0.2114947638817423	0.3385459272643551	2.009045343119123	0.2770803823562899	0.39767365268851673	2.029776276660845	0.2227788794176685	0.6742945578500645	2.098527659946253	0.047998828919308525	0.4365428902782822	1.2087997667322885	0.040144786293968414	0.49623179035532433	1.6544951536645809	0.03773716272556377	0.5837653293349716	2.0212615399369627	0.05804460057259547	0.3786952684784592	2.018958718798479	-0.001840914461701192	0.43824655714162086	2.031452857623612	0.049083040798560705	0.6343655638437175	2.0660390159980424	0.17532618093819094	0.3633228856178396	0.6881396061765677	0.1802972226779494	0.31117555431273497	0.46110891721605557	0.1800155173047829	0.2565204194948383	0.5811661426110837	0.30706625020610995	0.3259003969561357	0.7719470611306962	0.28282545488112787	0.22887289562610852	0.9691596642683861	0.2087720233496789	-0.004244510616049047	1.0687914462837185	0.14131266079934646	-0.11004485211391478	1.1075454608211583	0.1498106257158547	-0.1204771956391375	1.1119524610027158	0.1837459121141466	-0.055910560047520166	1.1446360026621414	0.027728099186058487	0.36880123545509413	0.768794575481283	0.034317139250972975	0.16310586679937591	0.9704358530912447	0.09933517828271116	-0.03815971904600025	1.0497047142233518	0.15630540497094034	-0.10573474603412852	1.1082308741042142	0.16182444794917802	-0.11530004287805046	1.1097968151706872	0.13654326370613828	-0.04415716698850868	1.1304621807450503
25	0.4716981132075472	0.25815853386754456	0.4406115656507678	1.2092841235417646	0.24434103885987588	0.5051367913288222	1.65257749152006	0.22961207098244849	0.5518424807784971	2.0175398572612786	0.21251756070447514	0.341070784367267	2.010207673838985	0.27819217847861655	0.39969466307127344	2.0306362176027295	0.22281269834962328	0.6743538594905518	2.0985689124119036	0.04995112924802423	0.43200200464234206	1.2069026886095675	0.040124220418191914	0.4964253518175139	1.6542823020944843	0.03776087501905658	0.5838173452408038	2.021266291045894	0.057776654839618045	0.3790152722525255	2.020162485654099	-0.0018229580780281425	0.43817188809613195	2.031423203144692	0.05042987579809983	0.6355642864829362	2.067110264128342	0.1750601039260532	0.3633057437957	0.6881521904618015	0.18030373302912572	0.3111854611066553	0.46108690114585765	0.1798241090432569	0.25632804062465986	0.5814740462364314	0.307059221310434	0.3259274433706385	0.7719257325713673	0.28297086271621913	0.23289150684219828	0.971875649303727	0.2087949107810781	-0.004205250930440207	1.0700036369469437	0.14017015540723654	-0.109939018601028	1.108130305352455	0.14879521898463807	-0.12079222777434509	1.1119207664574644	0.18390201654126928	-0.055696523610430926	1.1464986244204836	0.028002895522218373	0.37017921946969823	0.7689697804637888	0.03449238185948974	0.16429658929514515	0.9702181631640107	0.098973410660513	-0.03732391093647049	1.049801716030785	0.15657073942471486	-0.10971083575903526	1.1074237136415688	0.1610594262009669	-0.11775216016451526	1.1092855900436027	0.13759493326965497	-0.044370452658370856	1.130643788092402
26	0.490566037735849	0.2581954984105641	0.4414756881001831	1.2090742342888638	0.24426381770213962	0.5040330462160728	1.6509943312042965	0.23098780397870067	0.5577774584340085	2.0197822936467578	0.214544763076768	0.34398206848997676	2.011546446912013	0.2797080475934898	0.39780336637815905	2.0296231918073384	0.22287558192536422	0.6745194416769341	2.098577778523767	0.05132588566714355	0.4289061121089685	1.2050198055249661	0.04002693563869038	0.49698530475349917	1.653379294478619	0.0377726295761811	0.5838667450673636	2.021248971044327	0.05768626264642267	0.3791100137387591	2.0204450369680167	-0.0018179563286007615	0.43814737855838587	2.03134813831869	0.05072034345011692	0.6361600904063598	2.066806932427599	0.17386340518081494	0.36327449142416024	0.6881859143096645	0.1803102409146764	0.311201382118219	0.46106845640040883	0.1797201007485592	0.2561950156711904	0.5814129845600723	0.3070377965851417	0.32593324789710487	0.7719633123180244	0.28296199353129636	0.23406696860305248	0.9727768613758847	0.2087622685002413	-0.004632354674051791	1.0714671570208165	0.13850938054547826	-0.10966926933084224	1.1095060900515474	0.1484851450832798	-0.12079954055572259	1.111918755502512	0.1838477405382631	-0.05565833592700058	1.1468301860910148	0.02883951657894592	0.37437087789010687	0.7692011333316583	0.035140962325048805	0.16809720195948383	0.969602534250492	0.09779472251715457	-0.0344654015240088	1.0503149754570333	0.15672902348491058	-0.11240562408195767	1.106873832270946	0.16077833681454437	-0.11864852894203536	1.1090450372968856	0.13730374658249495	-0.04452878590520285	1.1308070356943958
27	0.5094339622641509	0.25816226784597673	0.44243455856119646	1.2080704378432772	0.24422292252840275	0.5032868028233098	1.6498406533086771	0.23200421215098882	0.5618583013155019	2.021678687993104	0.21561296893341209	0.34641865558882756	2.0126954062420856	0.28074074199387655	0.395993018189997	2.028688171759158	0.2229288785507335	0.6746814714917354	2.0985662286991915	0.05168036066030089	0.4283081643355943	1.203655770484085	0.039905882885555244	0.49776020031836726	1.6520187349072812	0.03777631317141776	0.5839028303644638	2.02122535745416	0.05770683653510526	0.37909006174798515	2.0202972661642833	-0.001802576645455079	0.4381256607551334	2.0312563740844976	0.050518774267208015	0.6366125173740526	2.0655070481636177	0.17179132814867518	0.3632509054716834	0.6882219230541888	0.18031872867408266	0.31119694931020053	0.4610924870318986	0.1800249789411243	0.25626624080390353	0.5813151680274541	0.30701156963578247	0.32592991148718103	0.7720277387873362	0.282999037861705	0.23372883183829146	0.9722299954752498	0.20878416820505863	-0.005218130088101718	1.073406305146036	0.13715650778455085	-0.10930681189324538	1.1107732878985304	0.14847518395112272	-0.12062506008968901	1.1119759884470635	0.1836936503389201	-0.055830618453934285	1.1466802863317611	0.02990608459260216	0.37968572820752083	0.7692619532564878	0.03606850750849867	0.17346976549298027	0.9686084570099068	0.09623046169438322	-0.030383459285119926	1.051421444806743	0.1564196093039387	-0.11297059671430712	1.106772883240292	0.16075827499404255	-0.11862648120961151	1.1090101134831176	0.13504327041201833	-0.044527435709602464	1.131357813378052
